# xmcd CD database file
#
# Track frame offsets:
#	150
#	18755
#	50155
#	61750
#	101820
#	117605
#	138825
#
# Disc length: 2515 seconds
#
# Revision: 0
# Processed by: cddbd v1.5.1PL0 Copyright (c) Steve Scherf et al.
# Submitted via: CDex 1.51
#
DISCID=5d09d107
DTITLE=Radhika Miller -  Within the Wind
DYEAR=1983
DGENRE=New Age
TTITLE0=Mbira´s Song
TTITLE1=Song Clouds
TTITLE2=La Fille Aux Cheveux De Lin
TTITLE3=Breath Of A Passing Breeze
TTITLE4=Irish Lovesong
TTITLE5=Message Of The Flying Bird
TTITLE6=Soul Of The Sea
EXTD=YEAR: 1983
EXTT0=
EXTT1=
EXTT2=
EXTT3=
EXTT4=
EXTT5=
EXTT6=
PLAYORDER=
